<mxfile host="Electron" agent="Mozilla/5.0 (X11; Linux x86_64) AppleWebKit/537.36 (KHTML, like Gecko) draw.io/24.7.17 Chrome/128.0.6613.36 Electron/32.0.1 Safari/537.36" version="24.7.17">
  <diagram name="Page-1" id="Yugns0XiJULp5lpPJWWl">
    <mxGraphModel dx="2487" dy="1431" grid="1" gridSize="10" guides="1" tooltips="1" connect="1" arrows="1" fold="1" page="0" pageScale="1" pageWidth="850" pageHeight="1100" math="0" shadow="0">
      <root>
        <mxCell id="0" />
        <mxCell id="1" parent="0" />
        <mxCell id="6gAf16IlrF_l0z3DGZ7d-60" value="" style="rounded=1;whiteSpace=wrap;html=1;strokeWidth=2;dashed=1;fontStyle=0;fillColor=none;fontSize=13;" vertex="1" parent="1">
          <mxGeometry x="-480" y="350" width="580" height="340" as="geometry" />
        </mxCell>
        <mxCell id="6gAf16IlrF_l0z3DGZ7d-1" value="&lt;b style=&quot;font-size: 22px;&quot;&gt;Log in&lt;/b&gt;" style="rounded=0;whiteSpace=wrap;html=1;" vertex="1" parent="1">
          <mxGeometry x="180" y="450" width="120" height="60" as="geometry" />
        </mxCell>
        <mxCell id="6gAf16IlrF_l0z3DGZ7d-2" value="&lt;b style=&quot;font-size: 22px;&quot;&gt;Sign Up&lt;/b&gt;" style="rounded=0;whiteSpace=wrap;html=1;" vertex="1" parent="1">
          <mxGeometry x="180" y="310" width="120" height="60" as="geometry" />
        </mxCell>
        <mxCell id="6gAf16IlrF_l0z3DGZ7d-49" style="edgeStyle=orthogonalEdgeStyle;rounded=0;orthogonalLoop=1;jettySize=auto;html=1;" edge="1" parent="1" source="6gAf16IlrF_l0z3DGZ7d-3" target="6gAf16IlrF_l0z3DGZ7d-60">
          <mxGeometry relative="1" as="geometry" />
        </mxCell>
        <mxCell id="6gAf16IlrF_l0z3DGZ7d-85" style="rounded=0;orthogonalLoop=1;jettySize=auto;html=1;" edge="1" parent="1" source="6gAf16IlrF_l0z3DGZ7d-35" target="6gAf16IlrF_l0z3DGZ7d-75">
          <mxGeometry relative="1" as="geometry" />
        </mxCell>
        <mxCell id="6gAf16IlrF_l0z3DGZ7d-3" value="&lt;b style=&quot;font-size: 22px;&quot;&gt;Teacher Profile&lt;/b&gt;" style="rounded=0;whiteSpace=wrap;html=1;" vertex="1" parent="1">
          <mxGeometry x="340" y="180" width="120" height="60" as="geometry" />
        </mxCell>
        <mxCell id="6gAf16IlrF_l0z3DGZ7d-51" style="edgeStyle=orthogonalEdgeStyle;rounded=0;orthogonalLoop=1;jettySize=auto;html=1;" edge="1" parent="1" source="6gAf16IlrF_l0z3DGZ7d-4" target="6gAf16IlrF_l0z3DGZ7d-60">
          <mxGeometry relative="1" as="geometry" />
        </mxCell>
        <mxCell id="6gAf16IlrF_l0z3DGZ7d-4" value="&lt;b style=&quot;font-size: 22px;&quot;&gt;Student Profile&lt;/b&gt;" style="rounded=0;whiteSpace=wrap;html=1;" vertex="1" parent="1">
          <mxGeometry x="340" y="780" width="120" height="60" as="geometry" />
        </mxCell>
        <mxCell id="6gAf16IlrF_l0z3DGZ7d-17" style="edgeStyle=orthogonalEdgeStyle;rounded=0;orthogonalLoop=1;jettySize=auto;html=1;" edge="1" parent="1" source="6gAf16IlrF_l0z3DGZ7d-5" target="6gAf16IlrF_l0z3DGZ7d-3">
          <mxGeometry relative="1" as="geometry" />
        </mxCell>
        <mxCell id="6gAf16IlrF_l0z3DGZ7d-36" style="edgeStyle=orthogonalEdgeStyle;rounded=0;orthogonalLoop=1;jettySize=auto;html=1;" edge="1" parent="1" source="6gAf16IlrF_l0z3DGZ7d-5" target="6gAf16IlrF_l0z3DGZ7d-35">
          <mxGeometry relative="1" as="geometry" />
        </mxCell>
        <mxCell id="6gAf16IlrF_l0z3DGZ7d-5" value="&lt;b style=&quot;font-size: 22px;&quot;&gt;Teacher Homepage&lt;/b&gt;" style="rounded=0;whiteSpace=wrap;html=1;" vertex="1" parent="1">
          <mxGeometry x="410" y="330" width="120" height="60" as="geometry" />
        </mxCell>
        <mxCell id="6gAf16IlrF_l0z3DGZ7d-19" style="edgeStyle=orthogonalEdgeStyle;rounded=0;orthogonalLoop=1;jettySize=auto;html=1;" edge="1" parent="1" source="6gAf16IlrF_l0z3DGZ7d-6" target="6gAf16IlrF_l0z3DGZ7d-4">
          <mxGeometry relative="1" as="geometry" />
        </mxCell>
        <mxCell id="6gAf16IlrF_l0z3DGZ7d-33" style="edgeStyle=orthogonalEdgeStyle;rounded=0;orthogonalLoop=1;jettySize=auto;html=1;" edge="1" parent="1" source="6gAf16IlrF_l0z3DGZ7d-6" target="6gAf16IlrF_l0z3DGZ7d-32">
          <mxGeometry relative="1" as="geometry" />
        </mxCell>
        <mxCell id="6gAf16IlrF_l0z3DGZ7d-38" style="rounded=0;orthogonalLoop=1;jettySize=auto;html=1;" edge="1" parent="1" source="6gAf16IlrF_l0z3DGZ7d-6" target="6gAf16IlrF_l0z3DGZ7d-37">
          <mxGeometry relative="1" as="geometry" />
        </mxCell>
        <mxCell id="6gAf16IlrF_l0z3DGZ7d-6" value="&lt;span style=&quot;font-size: 22px;&quot;&gt;&lt;b&gt;Top Rated Courses&lt;/b&gt;&lt;/span&gt;" style="rounded=0;whiteSpace=wrap;html=1;" vertex="1" parent="1">
          <mxGeometry x="410" y="600" width="120" height="60" as="geometry" />
        </mxCell>
        <mxCell id="6gAf16IlrF_l0z3DGZ7d-7" value="" style="endArrow=classic;html=1;rounded=0;" edge="1" parent="1" source="6gAf16IlrF_l0z3DGZ7d-1" target="6gAf16IlrF_l0z3DGZ7d-5">
          <mxGeometry width="50" height="50" relative="1" as="geometry">
            <mxPoint x="400" y="590" as="sourcePoint" />
            <mxPoint x="450" y="540" as="targetPoint" />
          </mxGeometry>
        </mxCell>
        <mxCell id="6gAf16IlrF_l0z3DGZ7d-10" value="Teacher" style="edgeLabel;html=1;align=center;verticalAlign=middle;resizable=0;points=[];" vertex="1" connectable="0" parent="6gAf16IlrF_l0z3DGZ7d-7">
          <mxGeometry x="0.0062" y="1" relative="1" as="geometry">
            <mxPoint as="offset" />
          </mxGeometry>
        </mxCell>
        <mxCell id="6gAf16IlrF_l0z3DGZ7d-9" value="" style="endArrow=classic;html=1;rounded=0;" edge="1" parent="1" source="6gAf16IlrF_l0z3DGZ7d-1" target="6gAf16IlrF_l0z3DGZ7d-6">
          <mxGeometry width="50" height="50" relative="1" as="geometry">
            <mxPoint x="330" y="560" as="sourcePoint" />
            <mxPoint x="380" y="510" as="targetPoint" />
          </mxGeometry>
        </mxCell>
        <mxCell id="6gAf16IlrF_l0z3DGZ7d-13" value="Student" style="edgeLabel;html=1;align=center;verticalAlign=middle;resizable=0;points=[];" vertex="1" connectable="0" parent="6gAf16IlrF_l0z3DGZ7d-9">
          <mxGeometry x="-0.0909" y="-2" relative="1" as="geometry">
            <mxPoint as="offset" />
          </mxGeometry>
        </mxCell>
        <mxCell id="6gAf16IlrF_l0z3DGZ7d-22" value="" style="endArrow=classic;startArrow=classic;html=1;rounded=0;" edge="1" parent="1" source="6gAf16IlrF_l0z3DGZ7d-1" target="6gAf16IlrF_l0z3DGZ7d-2">
          <mxGeometry width="50" height="50" relative="1" as="geometry">
            <mxPoint x="240" y="429.28932188134524" as="sourcePoint" />
            <mxPoint x="240" y="379.28932188134524" as="targetPoint" />
          </mxGeometry>
        </mxCell>
        <mxCell id="6gAf16IlrF_l0z3DGZ7d-32" value="&lt;b style=&quot;font-size: 22px;&quot;&gt;Enrolled Courses&lt;/b&gt;" style="rounded=0;whiteSpace=wrap;html=1;" vertex="1" parent="1">
          <mxGeometry x="480" y="780" width="120" height="60" as="geometry" />
        </mxCell>
        <mxCell id="6gAf16IlrF_l0z3DGZ7d-35" value="&lt;b style=&quot;font-size: 22px;&quot;&gt;Teacher&lt;/b&gt;&lt;div&gt;&lt;b style=&quot;font-size: 22px;&quot;&gt;Courses&lt;/b&gt;&lt;/div&gt;" style="rounded=0;whiteSpace=wrap;html=1;" vertex="1" parent="1">
          <mxGeometry x="480" y="180" width="120" height="60" as="geometry" />
        </mxCell>
        <mxCell id="6gAf16IlrF_l0z3DGZ7d-37" value="&lt;span style=&quot;font-size: 22px;&quot;&gt;&lt;b&gt;Course Page&lt;/b&gt;&lt;/span&gt;" style="rounded=0;whiteSpace=wrap;html=1;" vertex="1" parent="1">
          <mxGeometry x="600" y="600" width="120" height="60" as="geometry" />
        </mxCell>
        <mxCell id="6gAf16IlrF_l0z3DGZ7d-39" value="&lt;span&gt;&lt;font style=&quot;font-size: 17px;&quot;&gt;Video Player&lt;/font&gt;&lt;/span&gt;" style="rounded=1;whiteSpace=wrap;html=1;strokeWidth=2;dashed=1;fontStyle=0" vertex="1" parent="1">
          <mxGeometry x="600" y="520" width="120" height="60" as="geometry" />
        </mxCell>
        <mxCell id="6gAf16IlrF_l0z3DGZ7d-40" value="&lt;span&gt;&lt;font style=&quot;font-size: 17px;&quot;&gt;Watermark&lt;/font&gt;&lt;/span&gt;&lt;div&gt;&lt;span&gt;&lt;font style=&quot;font-size: 17px;&quot;&gt;Generation&lt;/font&gt;&lt;/span&gt;&lt;/div&gt;&lt;div&gt;&lt;span&gt;&lt;font style=&quot;font-size: 17px;&quot;&gt;System&lt;/font&gt;&lt;/span&gt;&lt;/div&gt;" style="rounded=1;whiteSpace=wrap;html=1;strokeWidth=2;dashed=1;fontStyle=0" vertex="1" parent="1">
          <mxGeometry x="600" y="420" width="120" height="80" as="geometry" />
        </mxCell>
        <mxCell id="6gAf16IlrF_l0z3DGZ7d-41" value="" style="endArrow=none;dashed=1;html=1;strokeWidth=1;rounded=0;" edge="1" parent="1" source="6gAf16IlrF_l0z3DGZ7d-39" target="6gAf16IlrF_l0z3DGZ7d-40">
          <mxGeometry width="50" height="50" relative="1" as="geometry">
            <mxPoint x="520" y="580" as="sourcePoint" />
            <mxPoint x="570" y="530" as="targetPoint" />
          </mxGeometry>
        </mxCell>
        <mxCell id="6gAf16IlrF_l0z3DGZ7d-44" value="" style="endArrow=none;dashed=1;html=1;strokeWidth=1;rounded=0;" edge="1" parent="1" source="6gAf16IlrF_l0z3DGZ7d-37" target="6gAf16IlrF_l0z3DGZ7d-39">
          <mxGeometry width="50" height="50" relative="1" as="geometry">
            <mxPoint x="660" y="480" as="sourcePoint" />
            <mxPoint x="660" y="430" as="targetPoint" />
          </mxGeometry>
        </mxCell>
        <mxCell id="6gAf16IlrF_l0z3DGZ7d-71" style="edgeStyle=orthogonalEdgeStyle;rounded=0;orthogonalLoop=1;jettySize=auto;html=1;" edge="1" parent="1" source="6gAf16IlrF_l0z3DGZ7d-47" target="6gAf16IlrF_l0z3DGZ7d-70">
          <mxGeometry relative="1" as="geometry" />
        </mxCell>
        <mxCell id="6gAf16IlrF_l0z3DGZ7d-47" value="&lt;b style=&quot;font-size: 22px;&quot;&gt;Change&lt;/b&gt;&lt;div&gt;&lt;b style=&quot;font-size: 22px;&quot;&gt;Password&lt;/b&gt;&lt;/div&gt;" style="rounded=0;whiteSpace=wrap;html=1;" vertex="1" parent="1">
          <mxGeometry x="-430" y="440" width="140" height="60" as="geometry" />
        </mxCell>
        <mxCell id="6gAf16IlrF_l0z3DGZ7d-54" style="rounded=0;orthogonalLoop=1;jettySize=auto;html=1;endArrow=none;endFill=0;dashed=1;" edge="1" parent="1" source="6gAf16IlrF_l0z3DGZ7d-52" target="6gAf16IlrF_l0z3DGZ7d-6">
          <mxGeometry relative="1" as="geometry" />
        </mxCell>
        <mxCell id="6gAf16IlrF_l0z3DGZ7d-52" value="&lt;b style=&quot;&quot;&gt;&lt;font style=&quot;font-size: 12px;&quot;&gt;Redommendation&lt;/font&gt;&lt;/b&gt;" style="rounded=0;whiteSpace=wrap;html=1;" vertex="1" parent="1">
          <mxGeometry x="250" y="670" width="120" height="40" as="geometry" />
        </mxCell>
        <mxCell id="6gAf16IlrF_l0z3DGZ7d-55" style="rounded=0;orthogonalLoop=1;jettySize=auto;html=1;endArrow=none;endFill=0;dashed=1;" edge="1" parent="1" source="6gAf16IlrF_l0z3DGZ7d-53" target="6gAf16IlrF_l0z3DGZ7d-6">
          <mxGeometry relative="1" as="geometry" />
        </mxCell>
        <mxCell id="6gAf16IlrF_l0z3DGZ7d-53" value="&lt;b style=&quot;&quot;&gt;&lt;font style=&quot;font-size: 12px;&quot;&gt;Search &amp;amp; Filtering Engine&lt;/font&gt;&lt;/b&gt;" style="rounded=0;whiteSpace=wrap;html=1;" vertex="1" parent="1">
          <mxGeometry x="250" y="610" width="120" height="40" as="geometry" />
        </mxCell>
        <mxCell id="6gAf16IlrF_l0z3DGZ7d-73" style="edgeStyle=orthogonalEdgeStyle;rounded=0;orthogonalLoop=1;jettySize=auto;html=1;" edge="1" parent="1" source="6gAf16IlrF_l0z3DGZ7d-63" target="6gAf16IlrF_l0z3DGZ7d-70">
          <mxGeometry relative="1" as="geometry" />
        </mxCell>
        <mxCell id="6gAf16IlrF_l0z3DGZ7d-63" value="&lt;span style=&quot;font-size: 22px;&quot;&gt;&lt;b&gt;Change&lt;/b&gt;&lt;/span&gt;&lt;div&gt;&lt;span style=&quot;font-size: 22px;&quot;&gt;&lt;b&gt;Email&lt;/b&gt;&lt;/span&gt;&lt;/div&gt;" style="rounded=0;whiteSpace=wrap;html=1;" vertex="1" parent="1">
          <mxGeometry x="-260" y="440" width="140" height="60" as="geometry" />
        </mxCell>
        <mxCell id="6gAf16IlrF_l0z3DGZ7d-64" value="Profile Editing" style="text;html=1;align=center;verticalAlign=middle;whiteSpace=wrap;rounded=0;fontSize=20;" vertex="1" parent="1">
          <mxGeometry x="-300" y="360" width="220" height="60" as="geometry" />
        </mxCell>
        <mxCell id="6gAf16IlrF_l0z3DGZ7d-74" style="edgeStyle=orthogonalEdgeStyle;rounded=0;orthogonalLoop=1;jettySize=auto;html=1;" edge="1" parent="1" source="6gAf16IlrF_l0z3DGZ7d-66" target="6gAf16IlrF_l0z3DGZ7d-70">
          <mxGeometry relative="1" as="geometry" />
        </mxCell>
        <mxCell id="6gAf16IlrF_l0z3DGZ7d-66" value="&lt;span style=&quot;font-size: 22px;&quot;&gt;&lt;b&gt;Change&lt;/b&gt;&lt;/span&gt;&lt;div&gt;&lt;span style=&quot;font-size: 22px;&quot;&gt;&lt;b&gt;Phone&lt;/b&gt;&lt;/span&gt;&lt;/div&gt;" style="rounded=0;whiteSpace=wrap;html=1;" vertex="1" parent="1">
          <mxGeometry x="-100" y="440" width="141" height="60" as="geometry" />
        </mxCell>
        <mxCell id="6gAf16IlrF_l0z3DGZ7d-70" value="&lt;span style=&quot;font-size: 22px;&quot;&gt;&lt;b&gt;Confirmation Page&lt;/b&gt;&lt;/span&gt;" style="rounded=0;whiteSpace=wrap;html=1;" vertex="1" parent="1">
          <mxGeometry x="-320" y="590" width="260" height="60" as="geometry" />
        </mxCell>
        <mxCell id="6gAf16IlrF_l0z3DGZ7d-75" value="" style="rounded=1;whiteSpace=wrap;html=1;strokeWidth=2;dashed=1;fontStyle=0;fillColor=none;fontSize=13;" vertex="1" parent="1">
          <mxGeometry x="340" y="-150" width="400" height="250" as="geometry" />
        </mxCell>
        <mxCell id="6gAf16IlrF_l0z3DGZ7d-77" value="&lt;span style=&quot;font-size: 22px;&quot;&gt;&lt;b&gt;Course Sections Design&lt;/b&gt;&lt;/span&gt;" style="rounded=0;whiteSpace=wrap;html=1;" vertex="1" parent="1">
          <mxGeometry x="380" y="-30" width="140" height="90" as="geometry" />
        </mxCell>
        <mxCell id="6gAf16IlrF_l0z3DGZ7d-79" value="&lt;span style=&quot;font-size: 22px;&quot;&gt;&lt;b&gt;Excercise Maker&lt;/b&gt;&lt;/span&gt;" style="rounded=0;whiteSpace=wrap;html=1;" vertex="1" parent="1">
          <mxGeometry x="550" y="-30" width="140" height="90" as="geometry" />
        </mxCell>
        <mxCell id="6gAf16IlrF_l0z3DGZ7d-80" value="Course Management System" style="text;html=1;align=center;verticalAlign=middle;whiteSpace=wrap;rounded=0;fontSize=20;" vertex="1" parent="1">
          <mxGeometry x="430" y="-130" width="220" height="60" as="geometry" />
        </mxCell>
      </root>
    </mxGraphModel>
  </diagram>
</mxfile>
